<?xml version="1.0" encoding="UTF-8"?>
<svg width="450px" height="156px" viewBox="0 0 450 156" version="1.1" xmlns="http://www.w3.org/2000/svg" xmlns:xlink="http://www.w3.org/1999/xlink">
    <title>Group Copy</title>
    <g id="Page-1" stroke="none" stroke-width="1" fill="none" fill-rule="evenodd">
        <g id="Group-Copy">
            <rect id="Rectangle" fill="#FAC800" x="0" y="0" width="450" height="156"></rect>
            <path d="M38.0875782,58 L45.6184093,35.6542857 L52.9124218,58 L61.1537087,58 L72,25 L64.6586238,25 L56.9383378,48.3828571 L49.360143,25 L42.2555853,25 L34.4405719,48.1942857 L26.9571046,25 L19,25 L29.893655,58 L38.0875782,58 Z M85,58 L85,25 L77,25 L77,58 L85,58 Z M119,58 L119,51.7771429 L102.578947,51.7771429 L102.578947,25 L95,25 L95,58 L119,58 Z M135.221649,59 C138.190722,59 140.71134,58.5460405 142.783505,57.6381215 C144.85567,56.7302026 146.409794,55.5013812 147.445876,53.9516575 C148.481959,52.4019337 149,50.6878453 149,48.8093923 C149,46.6178637 148.435567,44.8802947 147.306701,43.5966851 C146.177835,42.3130755 144.824742,41.373849 143.247423,40.7790055 C141.670103,40.1841621 139.64433,39.5893186 137.170103,38.9944751 C134.78866,38.4622468 133.018041,37.9221915 131.858247,37.3743094 C130.698454,36.8264273 130.118557,35.9889503 130.118557,34.8618785 C130.118557,33.7348066 130.621134,32.8268877 131.626289,32.1381215 C132.631443,31.4493554 134.185567,31.1049724 136.28866,31.1049724 C139.28866,31.1049724 142.28866,31.96593 145.28866,33.6878453 L145.28866,33.6878453 L147.608247,27.9116022 C146.123711,26.9723757 144.391753,26.252302 142.412371,25.7513812 C140.43299,25.2504604 138.407216,25 136.335052,25 C133.365979,25 130.853093,25.4539595 128.796392,26.3618785 C126.739691,27.2697974 125.201031,28.4986188 124.180412,30.0483425 C123.159794,31.5980663 122.649485,33.3278085 122.649485,35.2375691 C122.649485,37.4290976 123.213918,39.1823204 124.342784,40.4972376 C125.471649,41.8121547 126.824742,42.767035 128.402062,43.3618785 C129.979381,43.9567219 132.005155,44.5515654 134.479381,45.1464088 C136.087629,45.5220994 137.363402,45.8664825 138.306701,46.179558 C139.25,46.4926335 140.023196,46.9074586 140.626289,47.4240331 C141.229381,47.9406077 141.530928,48.5902394 141.530928,49.3729282 C141.530928,50.4373849 141.020619,51.2905157 140,51.9323204 C138.979381,52.5741252 137.402062,52.8950276 135.268041,52.8950276 C133.350515,52.8950276 131.43299,52.5819521 129.515464,51.9558011 C127.597938,51.3296501 125.943299,50.5 124.551546,49.4668508 L124.551546,49.4668508 L122,55.1961326 C123.453608,56.3232044 125.378866,57.2389503 127.775773,57.9433702 C130.17268,58.6477901 132.654639,59 135.221649,59 Z M173,59 C176.415144,59 179.48564,58.2642726 182.211488,56.7928177 C184.937337,55.3213628 187.083551,53.2941989 188.650131,50.711326 C190.21671,48.128453 191,45.2246777 191,42 C191,38.7753223 190.21671,35.871547 188.650131,33.288674 C187.083551,30.7058011 184.937337,28.6786372 182.211488,27.2071823 C179.48564,25.7357274 176.415144,25 173,25 C169.584856,25 166.506527,25.7357274 163.765013,27.2071823 C161.023499,28.6786372 158.877285,30.7058011 157.326371,33.288674 C155.775457,35.871547 155,38.7753223 155,42 C155,45.2246777 155.775457,48.128453 157.326371,50.711326 C158.877285,53.2941989 161.023499,55.3213628 163.765013,56.7928177 C166.506527,58.2642726 169.584856,59 173,59 Z M172.5,52 C170.518265,52 168.728311,51.5546875 167.130137,50.6640625 C165.531963,49.7734375 164.277397,48.53125 163.366438,46.9375 C162.455479,45.34375 162,43.53125 162,41.5 C162,39.46875 162.455479,37.65625 163.366438,36.0625 C164.277397,34.46875 165.531963,33.2265625 167.130137,32.3359375 C168.728311,31.4453125 170.518265,31 172.5,31 C174.481735,31 176.271689,31.4453125 177.869863,32.3359375 C179.468037,33.2265625 180.722603,34.46875 181.633562,36.0625 C182.544521,37.65625 183,39.46875 183,41.5 C183,43.53125 182.544521,45.34375 181.633562,46.9375 C180.722603,48.53125 179.468037,49.7734375 177.869863,50.6640625 C176.271689,51.5546875 174.481735,52 172.5,52 Z M205.476636,58 L205.476636,37.9642857 L221.785047,58 L228,58 L228,25 L220.523364,25 L220.523364,45.0357143 L204.261682,25 L198,25 L198,58 L205.476636,58 Z M267.35082,58 L267.35082,31.2228571 L278,31.2228571 L278,25 L249,25 L249,31.2228571 L259.64918,31.2228571 L259.64918,58 L267.35082,58 Z M291.570093,58 L291.570093,44.47 L306.429907,44.47 L306.429907,58 L314,58 L314,25 L306.429907,25 L306.429907,38.0114286 L291.570093,38.0114286 L291.570093,25 L284,25 L284,58 L291.570093,58 Z M350,58 L350,51.8714286 L331.723247,51.8714286 L331.723247,44.2342857 L347.313653,44.2342857 L347.313653,38.2942857 L331.723247,38.2942857 L331.723247,31.1285714 L349.376384,31.1285714 L349.376384,25 L324,25 L324,58 L350,58 Z M365.12801,58 L365.12801,38.6242857 L374.741445,54.5114286 L378.164766,54.5114286 L387.825095,38.2 L387.87199,58 L395,58 L394.90621,25 L388.669202,25 L376.570342,45.5071429 L364.283904,25 L358,25 L358,58 L365.12801,58 Z M430,58 L430,51.8714286 L411.723247,51.8714286 L411.723247,44.2342857 L427.313653,44.2342857 L427.313653,38.2942857 L411.723247,38.2942857 L411.723247,31.1285714 L429.376384,31.1285714 L429.376384,25 L404,25 L404,58 L430,58 Z M36.0946746,131 C39.5871137,131 42.5325444,130.471831 44.9309665,129.415493 C47.3293886,128.359155 49.1071663,126.943662 50.2642998,125.169014 C51.4214333,123.394366 52,121.429577 52,119.274648 C52,116.65493 51.3162393,114.573944 49.9487179,113.03169 C48.5811966,111.489437 46.9296515,110.338028 44.9940828,109.577465 C43.0585141,108.816901 40.4707429,108.035211 37.2307692,107.232394 C34.3274162,106.514085 32.034188,105.838028 30.3510848,105.204225 C28.6679816,104.570423 27.2583826,103.661972 26.122288,102.478873 C24.9861933,101.295775 24.418146,99.7112676 24.418146,97.7253521 C24.418146,95.1056338 25.4700855,92.971831 27.5739645,91.3239437 C29.6778435,89.6760563 32.7705457,88.8521127 36.852071,88.8521127 C38.9138725,88.8521127 41.0072321,89.1690141 43.1321499,89.8028169 C45.2570677,90.4366197 47.2031558,91.3661972 48.9704142,92.5915493 L48.9704142,92.5915493 L50.1696252,89.9929577 C48.4444444,88.7676056 46.4036818,87.7957746 44.0473373,87.0774648 C41.6909928,86.3591549 39.2925707,86 36.852071,86 C33.3596318,86 30.4457594,86.528169 28.1104536,87.584507 C25.7751479,88.6408451 24.0394477,90.0669014 22.9033531,91.8626761 C21.7672584,93.6584507 21.199211,95.6338028 21.199211,97.7887324 C21.199211,100.450704 21.8829717,102.573944 23.2504931,104.158451 C24.6180145,105.742958 26.2800789,106.915493 28.2366864,107.676056 C30.1932939,108.43662 32.7915845,109.21831 36.0315582,110.021127 C38.8928337,110.697183 41.165023,111.352113 42.8481262,111.985915 C44.5312295,112.619718 45.9408284,113.528169 47.0769231,114.711268 C48.2130178,115.894366 48.7810651,117.478873 48.7810651,119.464789 C48.7810651,122.042254 47.7080868,124.133803 45.5621302,125.739437 C43.4161736,127.34507 40.2393162,128.147887 36.0315582,128.147887 C33.1282051,128.147887 30.3616042,127.630282 27.7317554,126.59507 C25.1019066,125.559859 23.008547,124.21831 21.4516765,122.570423 L21.4516765,122.570423 L20,124.978873 C21.6410256,126.753521 23.9237344,128.200704 26.8481262,129.320423 C29.7725181,130.440141 32.8547009,131 36.0946746,131 Z M78.1081081,130 L78.1081081,88.8914286 L94,88.8914286 L94,86 L59,86 L59,88.8914286 L74.8918919,88.8914286 L74.8918919,130 L78.1081081,130 Z M98.4820144,130 L104.116547,117.617143 L129.820144,117.617143 L135.517986,130 L139,130 L118.614388,86 L115.385612,86 L95,130 L98.4820144,130 Z M129,115 L106,115 L117.468665,90 L129,115 Z M154.1875,130 L154.1875,115.605714 L166.6875,115.605714 C167.979167,115.605714 169.395833,115.500952 170.9375,115.291429 L170.9375,115.291429 L181.375,130 L185,130 L174.0625,114.6 C177.354167,113.63619 179.885417,111.970476 181.65625,109.602857 C183.427083,107.235238 184.3125,104.312381 184.3125,100.834286 C184.3125,96.1828571 182.75,92.547619 179.625,89.9285714 C176.5,87.3095238 172.1875,86 166.6875,86 L166.6875,86 L151,86 L151,130 L154.1875,130 Z M166.55814,113 L154,113 L154,89 L166.55814,89 C171.246512,89 174.825581,90.0421053 177.295349,92.1263158 C179.765116,94.2105263 181,97.1684211 181,101 C181,104.831579 179.765116,107.789474 177.295349,109.873684 C174.825581,111.957895 171.246512,113 166.55814,113 L166.55814,113 Z M211.108108,130 L211.108108,88.8914286 L227,88.8914286 L227,86 L192,86 L192,88.8914286 L207.891892,88.8914286 L207.891892,130 L211.108108,130 Z M269,130 L269,127.108571 L242.167702,127.108571 L242.167702,109.068571 L265.335404,109.068571 L265.335404,106.24 L242.167702,106.24 L242.167702,88.8914286 L268.068323,88.8914286 L268.068323,86 L239,86 L239,130 L269,130 Z M287.1875,130 L287.1875,115.605714 L299.6875,115.605714 C300.979167,115.605714 302.395833,115.500952 303.9375,115.291429 L303.9375,115.291429 L314.375,130 L318,130 L307.0625,114.6 C310.354167,113.63619 312.885417,111.970476 314.65625,109.602857 C316.427083,107.235238 317.3125,104.312381 317.3125,100.834286 C317.3125,96.1828571 315.75,92.547619 312.625,89.9285714 C309.5,87.3095238 305.1875,86 299.6875,86 L299.6875,86 L284,86 L284,130 L287.1875,130 Z M299.55814,113 L287,113 L287,89 L299.55814,89 C304.246512,89 307.825581,90.0421053 310.295349,92.1263158 C312.765116,94.2105263 314,97.1684211 314,101 C314,104.831579 312.765116,107.789474 310.295349,109.873684 C307.825581,111.957895 304.246512,113 299.55814,113 L299.55814,113 Z M336.215412,130 L336.215412,118.434286 L346.113835,108.314286 L365.091068,130 L369,130 L348.257443,105.988571 L367.676007,86 L363.767075,86 L336.215412,114.285714 L336.215412,86 L333,86 L333,130 L336.215412,130 Z M384,130 L384,86 L381,86 L381,130 L384,130 Z M415.108108,130 L415.108108,88.8914286 L431,88.8914286 L431,86 L396,86 L396,88.8914286 L411.891892,88.8914286 L411.891892,130 L415.108108,130 Z" id="WILSONTHEMESTARTERKIT" fill="#000000" fill-rule="nonzero"></path>
        </g>
    </g>
</svg>